{"title":"The.Human.Stain.[2003].DvdRip.XviD-KnÃƒÂ£","uid":6356515,"size":971337728,"categoryP":"video","categoryS":"movies","magnet":"?xt=urn:btih:7cba8d20d55337850c3ce9e48be3865600184f7b&amp;dn=The.Human.Stain.%5B2003%5D.DvdRip.XviD-Kn%C3%83%C2%A3&amp;tr=udp%3A%2F%2Ftracker.openbittorrent.com%3A80&amp;tr=udp%3A%2F%2Fopen.demonii.com%3A1337&amp;tr=udp%3A%2F%2Ftracker.coppersurfer.tk%3A6969&amp;tr=udp%3A%2F%2Fexodus.desync.com%3A6969","seeders":0,"leechers":0,"uploader":"Jon.Pson","files":1,"time":1304121685,"description":"When a disgraced former college professor has a romance with a mysterious younger woman haunted by her dark twisted past, he is forced to confront a shocking secret about his own life that he has kept secret for 50 years.\n\nGeneral\nComplete name                    : H:\\Movies\\The.Human.Stain.[2003].DvdRip.XviD-KnÃƒÂ£\\The.Human.Stain.[2003].DvdRip.XviD-KnÃƒÂ£.avi\nFormat                           : AVI\nFormat/Info                      : Audio Video Interleave\nFile size                        : 926 MiB\nDuration                         : 1h 41mn\nOverall bit rate                 : 1 279 Kbps\nWriting application              : VirtualDubMod 1.5.4.1 (build 2178/release)\nWriting library                  : VirtualDubMod build 2178/release\n\nVideo\nID                               : 0\nFormat                           : MPEG-4 Visual\nFormat profile                   : Advanced Simple@L5\nFormat settings, BVOP            : Yes\nFormat settings, QPel            : No\nFormat settings, GMC             : No warppoints\nFormat settings, Matrix          : Default (H.263)\nMuxing mode                      : Packed bitstream\nCodec ID                         : XVID\nCodec ID/Hint                    : XviD\nDuration                         : 1h 41mn\nBit rate                         : 1 079 Kbps\nWidth                            : 720 pixels\nHeight                           : 304 pixels\nDisplay aspect ratio             : 2.35:1\nFrame rate                       : 25.000 fps\nColor space                      : YUV\nChroma subsampling               : 4:2:0\nBit depth                        : 8 bits\nScan type                        : Progressive\nBits/(Pixel*Frame)               : 0.197\nStream size                      : 782 MiB (84%)\nWriting library                  : XviD 58\n\nAudio\nID                               : 1\nFormat                           : AC-3\nFormat/Info                      : Audio Coding 3\nMode extension                   : CM (complete main)\nCodec ID                         : 2000\nDuration                         : 1h 41mn\nBit rate mode                    : Constant\nBit rate                         : 192 Kbps\nChannel(s)                       : 2 channels\nChannel positions                : Front: L R\nSampling rate                    : 48.0 KHz\nBit depth                        : 16 bits\nStream size                      : 139 MiB (15%)\nAlignment                        : Split accross interleaves\nInterleave, duration             : 80 ms (2.00 video frames)\nInterleave, preload duration     : 500 ms\n\n","torrent":{"xt":"urn:btih:7cba8d20d55337850c3ce9e48be3865600184f7b","amp;dn":"The.Human.Stain.%5B2003%5D.DvdRip.XviD-Kn%C3%83%C2%A3","amp;tr":["udp%3A%2F%2Ftracker.openbittorrent.com%3A80","udp%3A%2F%2Fopen.demonii.com%3A1337","udp%3A%2F%2Ftracker.coppersurfer.tk%3A6969","udp%3A%2F%2Fexodus.desync.com%3A6969"],"infoHash":"7cba8d20d55337850c3ce9e48be3865600184f7b","infoHashBuffer":{"type":"Buffer","data":[124,186,141,32,213,83,55,133,12,60,233,228,139,227,134,86,0,24,79,123]},"announce":[],"urlList":[]}}